<svg height="512pt" viewBox="-21 0 512 512" width="512pt" xmlns="http://www.w3.org/2000/svg"><path d="m39.746094 199.722656h71.804687v249.03125h-71.804687zm0 0" fill="#e3e3e5"/><path d="m198.617188 199.722656h71.804687v249.03125h-71.804687zm0 0" fill="#e3e3e5"/><path d="m234.519531 199.722656h35.902344v249.03125h-35.902344zm0 0" fill="#d1d1d4"/><path d="m357.488281 199.722656h71.804688v249.03125h-71.804688zm0 0" fill="#d1d1d4"/><path d="m15.765625 512h437.503906c8.695313 0 15.765625-7.074219 15.765625-15.765625v-39.597656c0-8.691407-7.070312-15.765625-15.765625-15.765625h-437.503906c-8.691406 0-15.765625 7.074218-15.765625 15.765625v39.597656c0 8.691406 7.074219 15.765625 15.765625 15.765625zm0 0" fill="#5b6aa5"/><path d="m469.039062 456.636719v39.597656c0 8.691406-7.074218 15.765625-15.769531 15.765625h-218.75v-71.128906h218.75c8.695313 0 15.769531 7.074218 15.769531 15.765625zm0 0" fill="#32458f"/><path d="m15.765625 207.605469h437.503906c8.695313 0 15.765625-7.070313 15.765625-15.765625v-66.621094c0-7.292969-4.933594-15.21875-11.476562-18.4375l-212.484375-104.527344c-6.117188-3.003906-14.992188-3.003906-21.109375 0l-212.488282 104.527344c-6.542968 3.21875-11.476562 11.144531-11.476562 18.4375v66.621094c0 8.695312 7.074219 15.765625 15.765625 15.765625zm0 0" fill="#5b6aa5"/><path d="m245.074219 2.253906 212.484375 104.527344c6.542968 3.21875 11.476562 11.144531 11.476562 18.4375v66.621094c0 8.695312-7.070312 15.765625-15.765625 15.765625h-218.75v-207.605469c3.746094 0 7.496094.75 10.554688 2.253906zm0 0" fill="#32458f"/><path d="m157.324219 159.175781h154.390625c8.695312 0 15.769531-7.070312 15.769531-15.765625v-35.71875c0-8.695312-7.074219-15.769531-15.769531-15.769531h-154.390625c-8.695313 0-15.769531 7.074219-15.769531 15.769531v35.71875c0 8.695313 7.074218 15.765625 15.769531 15.765625zm0 0" fill="#ffe333"/><path d="m311.714844 91.921875c8.695312 0 15.769531 7.074219 15.769531 15.765625v35.722656c0 8.691406-7.074219 15.765625-15.769531 15.765625h-77.195313v-67.253906zm0 0" fill="#fbb300"/></svg>