<svg height="512" viewBox="0 0 128 128" width="512" xmlns="http://www.w3.org/2000/svg"><path d="m55.265 60.707-4.722-4.722a4.41 4.41 0 0 1 -1.263-3.618 4.406 4.406 0 0 1 2.878-3.646l16.27-5.9-5.9 16.27a4.409 4.409 0 0 1 -3.646 2.878 4.41 4.41 0 0 1 -3.617-1.262z" fill="#77bc4d"/><path d="m41.984 71.016a1.751 1.751 0 0 1 -1.237-2.988l16.853-16.855a1.75 1.75 0 1 1 2.475 2.475l-16.853 16.852a1.744 1.744 0 0 1 -1.238.516z" fill="#6d4c41"/><path d="m93.771 29.354-6 2.931a4.41 4.41 0 0 1 -3.832.019 4.41 4.41 0 0 1 -2.514-3.904l-.292-17.3 13.467 10.859a4.41 4.41 0 0 1 1.538 4.383 4.414 4.414 0 0 1 -2.367 3.012z" fill="#77bc4d"/><path d="m98.121 47.613a1.75 1.75 0 0 1 -1.573-.983l-11.034-22.585a1.75 1.75 0 1 1 3.144-1.536l11.034 22.585a1.75 1.75 0 0 1 -1.571 2.519z" fill="#6d4c41"/><path d="m73.282 104.441 1.842-6.42a4.411 4.411 0 0 1 2.552-2.858 4.412 4.412 0 0 1 4.585.751l13.044 11.372-17.09 2.726a4.409 4.409 0 0 1 -4.285-1.794 4.411 4.411 0 0 1 -.648-3.777z" fill="#77bc4d"/><path d="m82.272 105.3a1.755 1.755 0 0 1 -.483-.068l-23.95-6.873a1.75 1.75 0 0 1 .965-3.364l23.95 6.872a1.751 1.751 0 0 1 -.482 3.433z" fill="#6d4c41"/><path d="m23.5 64.476-2.321 6.261a4.408 4.408 0 0 1 -2.76 2.658 4.41 4.41 0 0 1 -4.519-1.095l-12.15-12.324 17.25-1.428a4.411 4.411 0 0 1 4.138 2.112 4.411 4.411 0 0 1 .362 3.816z" fill="#77bc4d"/><path d="m36.506 74.609a1.765 1.765 0 0 1 -.606-.109l-22.044-8.17a1.75 1.75 0 0 1 1.217-3.282l22.041 8.17a1.75 1.75 0 0 1 -.608 3.391z" fill="#6d4c41"/><path d="m88.049 70.726c13.584-16.14 27.057-37.156 38.074-64.353a1.747 1.747 0 0 0 -.99-2.278l-5.691-2.224a1.765 1.765 0 0 0 -2.275.98c-17.712 43.703-41.887 70.649-62.02 86.786a1.769 1.769 0 0 1 -2.642-.517c-11.559-20.925-15.222-42.72-10.367-62.2a1.743 1.743 0 0 0 -1.233-2.113l-5.9-1.6a1.762 1.762 0 0 0 -2.174 1.245c-5.632 22.365-1.35 47.243 12.1 70.811a1.73 1.73 0 0 1 -.524 2.3l-.013.008c-19.739 13.321-36.227 18.029-41.304 19.257a1.739 1.739 0 0 0 -1.311 2l.556 3.052.528 2.927a1.754 1.754 0 0 0 2.126 1.393c5.545-1.281 23.069-6.16 44.353-20.42a181.5 181.5 0 0 0 28.788-24.107 1.766 1.766 0 0 1 1.706-.479c6.1 1.583 13.05 3.125 20.134 3.125a37.112 37.112 0 0 0 16.822-3.7 1.748 1.748 0 0 0 .745-2.443l-3.068-5.261a1.759 1.759 0 0 0 -2.281-.694c-7.1 3.421-15.331 2.891-23.142 1.321a1.736 1.736 0 0 1 -.997-2.816z" fill="#bc8871"/></svg>