<svg id="Capa_1" enable-background="new 0 0 497 497" height="512" viewBox="0 0 497 497" width="512" xmlns="http://www.w3.org/2000/svg"><g><path d="m489.5 30.007h-22.5l-45 120 75-60v-52.5c0-4.142-3.358-7.5-7.5-7.5z" fill="#ff5975"/><path d="m0 37.507v52.5l467 195v-255h-459.5c-4.142 0-7.5 3.358-7.5 7.5z" fill="#ff738b"/><path d="m0 90.004v399.488c0 4.146 3.364 7.506 7.51 7.5l482-.661c4.138-.006 7.49-3.362 7.49-7.5v-398.819z" fill="#fffcd1"/><path d="m437 120.012-90 173.155 90 173.154h30v-346.309z" fill="#ffc2d3"/><path d="m30 120.008h407v346.31h-407z" fill="#ffd6e2"/><path d="m242 211.506h15v75h-15z" fill="#fff"/><g fill="#9eeeff"><path d="m75 .007c-8.284 0-15 6.716-15 15v30c0 8.284 6.716 15 15 15s15-6.716 15-15v-30c0-8.284-6.716-15-15-15z"/><path d="m422 .007c-8.284 0-15 6.716-15 15v30c0 8.284 6.716 15 15 15s15-6.716 15-15v-30c0-8.284-6.716-15-15-15z"/><path d="m335.25.007c-8.284 0-15 6.716-15 15v30c0 8.284 6.716 15 15 15s15-6.716 15-15v-30c0-8.284-6.716-15-15-15z"/><path d="m248.5.007c-8.284 0-15 6.716-15 15v30c0 8.284 6.716 15 15 15s15-6.716 15-15v-30c0-8.284-6.716-15-15-15z"/><path d="m161.75.007c-8.284 0-15 6.716-15 15v30c0 8.284 6.716 15 15 15s15-6.716 15-15v-30c0-8.284-6.716-15-15-15z"/></g><path d="m227 264.006h45v45h-45z" fill="#fffcd1"/><path d="m332 294.006h-30v68.001h60v-38.001c0-16.57-13.43-30-30-30z" fill="#994b4f"/><path d="m302 294.006h-135c-16.57 0-30 13.43-30 30v38.001l30 60h165v-98.001c0-16.57-13.43-30-30-30z" fill="#b5575c"/><path d="m347 347.008h-15l-30 44.746 30 45.254h30v-75c0-8.285-6.716-15-15-15z" fill="#e86864"/><path d="m212 362.008v30c0 8.284-6.716 15-15 15s-15-6.716-15-15v-30c0-8.28-6.72-15-15-15h-15c-8.284 0-15 6.716-15 15v75h195v-90h-105c-8.29 0-15 6.72-15 15z" fill="#fc7e65"/><path d="m331.987 323.499c.003.169.013.337.013.507 0 0 0-.507-.013-.507z" fill="#fc7e65"/><path d="m249.5 150.008-24.821 37.148c-3.267 4.803-5.179 10.604-5.179 16.851 0 16.569 13.431 30 30 30s30-13.431 30-30c0-6.247-1.911-12.047-5.179-16.851z" fill="#ff925e"/></g></svg>