<svg xmlns="http://www.w3.org/2000/svg" version="1.1" xmlns:xlink="http://www.w3.org/1999/xlink" xmlns:svgjs="http://svgjs.com/svgjs" width="512" height="512" x="0" y="0" viewBox="0 0 58 49" style="enable-background:new 0 0 512 512" xml:space="preserve" class=""><g><g xmlns="http://www.w3.org/2000/svg" id="Page-1" fill="none" fill-rule="evenodd"><g id="008---Certificate" fill-rule="nonzero"><path id="Shape" d="m43 44h11c2.209139 0 4-1.790861 4-4v-36c0-2.209139-1.790861-4-4-4h-50c-2.209139 0-4 1.790861-4 4v36c0 2.209139 1.790861 4 4 4z" fill="#f3d55b" data-original="#f3d55b" class=""></path><path id="Shape" d="m36 36h-26c-2.209139 0-4-1.790861-4-4v-20c0-2.209139 1.790861-4 4-4h26z" fill="#ffffff" data-original="#ffffff" class=""></path><path id="Shape" d="m36 37h-26c-2.76005315-.0033061-4.99669388-2.2399468-5-5v-20c.00330612-2.76005315 2.23994685-4.99669388 5-5h26c.5522847 0 1 .44771525 1 1v28c0 .5522847-.4477153 1-1 1zm-26-28c-1.65685425 0-3 1.3431458-3 3v20c0 1.6568542 1.34314575 3 3 3h25v-26z" fill="#e4c05c" data-original="#e4c05c"></path><g fill="#547580"><path id="Shape" d="m25 23h-14c-.5522847 0-1-.4477153-1-1s.4477153-1 1-1h14c.5522847 0 1 .4477153 1 1s-.4477153 1-1 1z" fill="#547580" data-original="#547580"></path><path id="Shape" d="m25 19h-14c-.5522847 0-1-.4477153-1-1s.4477153-1 1-1h14c.5522847 0 1 .4477153 1 1s-.4477153 1-1 1z" fill="#547580" data-original="#547580"></path><path id="Shape" d="m25 15h-14c-.5522847 0-1-.4477153-1-1s.4477153-1 1-1h14c.5522847 0 1 .4477153 1 1s-.4477153 1-1 1z" fill="#547580" data-original="#547580"></path><path id="Shape" d="m11 33c-.4739764.0005281-.8832163-.3317555-.9800309-.7957393-.09681452-.4639837.1453939-.9321981.5800309-1.1212607.6973111-.2494927 1.3417465-.6273353 1.9-1.114.5106308-.501269.7908363-1.1916463.774-1.907-.0302414-.4949132.3067449-.937249.7919241-1.0394975s.9720161.1664716 1.1440759.6314975c.3022539.901624.908517 1.6701465 1.715 2.174.1902124.1388832.4263622.1997097.66.17.1487439-.0987504.2342902-.2687023.225-.447-.0349055-.495614.2993543-.9416924.7848268-1.0473718.4854724-.1056794.9749084.1610941 1.1491732.6263718.1.265.339.641 1.272.856l.773.183c1.3438453.4027417 2.7412223.5983205 4.144.58.550904-.0397645 1.0297355.374596 1.0695.9255s-.374596 1.0297355-.9255 1.0695c-1.607566.0344634-3.2108988-.1780102-4.754-.63l-.756-.179c-.5219594-.1108562-1.0204835-.3122288-1.473-.595-.2254712.2321158-.4983376.4128898-.8.53-.7869646.2649952-1.6519937.1544248-2.347-.3-.4983352-.2859861-.9471309-.6506959-1.329-1.08-.1959453.3272955-.4310079.6295187-.7.9-.7330818.6665172-1.5881018 1.1850302-2.518 1.527-.1260589.0553443-.2623285.0836203-.4.083z" fill="#547580" data-original="#547580"></path></g><path id="Shape" d="m43 38v9.586c-.0000863.4043959-.2437275.7689341-.6173454.923678-.373618.1547439-.8036603.0692299-1.0896546-.216678l-2.293-2.293-2.293 2.293c-.2859943.2859079-.7160366.3714219-1.0896546.216678-.3736179-.1547439-.6172591-.5192821-.6173454-.923678v-23.586c.2848455.2817922.6693208.4398942 1.07.44.181344-.0001289.3610769-.0340408.53-.1.1684139-.0677176.3484895-.1016942.53-.1.6015242.0037528 1.1468557.354323 1.4.9.2486833.5436041.7922156.8916212 1.39.89.3863721.0015178.7586072-.1452288 1.04-.41.01-.01.03-.02.04-.03z" fill="#ff5364" data-original="#ff5364"></path><path id="Shape" d="m49 24v13.586c-.0000863.4043959-.2437275.7689341-.6173454.923678-.373618.1547439-.8036603.0692299-1.0896546-.216678l-2.293-2.293-2.293 2.293c-.2859943.2859079-.7160366.3714219-1.0896546.216678-.3736179-.1547439-.6172591-.5192821-.6173454-.923678v-12c.5858335-.5179894 1.4696515-.504992 2.04.03.2813928.2647712.6536279.4115178 1.04.41.5977844.0016212 1.1413167-.3463959 1.39-.89.2531443-.545677.7984758-.8962472 1.4-.9.1815105-.0016942.3615861.0322824.53.1.1689231.0659592.348656.0998711.53.1.4001108.0009601.7845074-.1556725 1.07-.436z" fill="#df4d60" data-original="#df4d60"></path><path id="Shape" d="m53.59 17.04c.2647712.2813928.4115178.6536279.41 1.04.0016212.5977844-.3463959 1.1413167-.89 1.39-.545677.2531443-.8962472.7984758-.9 1.4-.0016942.1815105.0322824.3615861.1.53.0659592.1689231.0998711.348656.1.53-.0042132.8239595-.6566351 1.4984226-1.48 1.53-.7993979.0293225-1.4406775.6706021-1.47 1.47-.0088262.3940681-.1743787.7683605-.46 1.04-.2848455.2817922-.6693208.4398942-1.07.44-.181344-.0001289-.3610769-.0340408-.53-.1-.1684139-.0677176-.3484895-.1016942-.53-.1-.6015242.0037528-1.1468557.354323-1.4.9-.2486833.5436041-.7922156.8916212-1.39.89-.3863721.0015178-.7586072-.1452288-1.04-.41-.5703485-.534992-1.4541665-.5479894-2.04-.03-.01.01-.03.02-.04.03-.2813928.2647712-.6536279.4115178-1.04.41-.5977844.0016212-1.1413167-.3463959-1.39-.89-.2531443-.545677-.7984758-.8962472-1.4-.9-.1815105-.0016942-.3615861.0322824-.53.1-.1689231.0659592-.348656.0998711-.53.1-.4006792-.0001058-.7851545-.1582078-1.07-.44-.2856213-.2716395-.4511738-.6459319-.46-1.04-.0293225-.7993979-.6706021-1.4406775-1.47-1.47-.8233649-.0315774-1.4757868-.7060405-1.48-1.53.0001289-.181344.0340408-.3610769.1-.53.0677176-.1684139.1016942-.3484895.1-.53-.0037528-.6015242-.354323-1.1468557-.9-1.4-.5436041-.2486833-.8916212-.7922156-.89-1.39-.0015178-.3863721.1452288-.7586072.41-1.04.5466786-.5855722.5466786-1.4944278 0-2.08-.2647712-.2813928-.4115178-.6536279-.41-1.04-.0016212-.5977844.3463959-1.1413167.89-1.39.545677-.2531443.8962472-.7984758.9-1.4.0016942-.1815105-.0322824-.3615861-.1-.53-.0659592-.1689231-.0998711-.348656-.1-.53.0042132-.82395946.6566351-1.49842257 1.48-1.53.7993979-.02932246 1.4406775-.6706021 1.47-1.47.0315774-.82336493.7060405-1.47578676 1.53-1.48.181344.00012889.3610769.03404076.53.1.1684139.06771763.3484895.10169416.53.1.6015242-.00375277 1.1468557-.35432299 1.4-.9.2486833-.54360414.7922156-.8916212 1.39-.89.3863721-.00151776.7586072.14522877 1.04.41.5855722.54667864 1.4944278.54667864 2.08 0 .3592472-.33347768.8565231-.47464135 1.3374006-.3796532s.8871308.41462671 1.0925994.8596532c.2531443.54567701.7984758.89624723 1.4.9.1815105.00169416.3615861-.03228237.53-.1.1689231-.06595924.348656-.09987111.53-.1.8239595.00421324 1.4984226.65663507 1.53 1.48.0293225.7993979.6706021 1.44067754 1.47 1.47.8233649.03157743 1.4757868.70604054 1.48 1.53-.0001289.181344-.0340408.3610769-.1.53-.0677176.1684139-.1016942.3484895-.1.53.0037528.6015242.354323 1.1468557.9 1.4.5436041.2486833.8916212.7922156.89 1.39.0015178.3863721-.1452288.7586072-.41 1.04-.5466786.5855722-.5466786 1.4944278 0 2.08z" fill="#fb7b76" data-original="#fb7b76" class=""></path><circle id="Oval" cx="42" cy="16" fill="#ffffff" r="7" data-original="#ffffff" class=""></circle><path id="Shape" d="m42 24c-4.418278 0-8-3.581722-8-8s3.581722-8 8-8 8 3.581722 8 8c-.0049599 4.4162219-3.5837781 7.9950401-8 8zm0-14c-3.3137085 0-6 2.6862915-6 6s2.6862915 6 6 6 6-2.6862915 6-6c-.0033074-3.3123376-2.6876624-5.9966926-6-6z" fill="#f3d55b" data-original="#f3d55b" class=""></path></g></g></g></svg>