<svg xmlns="http://www.w3.org/2000/svg" version="1.1" xmlns:xlink="http://www.w3.org/1999/xlink" xmlns:svgjs="http://svgjs.com/svgjs" width="512" height="512" x="0" y="0" viewBox="0 0 512.00001 512" style="enable-background:new 0 0 512 512" xml:space="preserve" class=""><g><path xmlns="http://www.w3.org/2000/svg" d="m0 0h512v364.800781h-512zm0 0" fill="#ddeaf1" data-original="#ddeaf1" class=""></path><path xmlns="http://www.w3.org/2000/svg" d="m255.757812 0h256.242188v364.800781h-256.242188zm0 0" fill="#bddfff" data-original="#bddfff" class=""></path><g xmlns="http://www.w3.org/2000/svg" fill="#305895"><path d="m301.800781 167.386719h139.265625v30.027343h-139.265625zm0 0" fill="#305895" data-original="#305895" class=""></path><path d="m301.800781 102.328125h139.265625v30.027344h-139.265625zm0 0" fill="#305895" data-original="#305895" class=""></path><path d="m301.800781 232.449219h83.71875v30.027343h-83.71875zm0 0" fill="#305895" data-original="#305895" class=""></path></g><path xmlns="http://www.w3.org/2000/svg" d="m245.644531 301.582031v-52.445312c0-33.226563-26.945312-60.171875-60.183593-60.171875h-84.382813c-33.238281 0-60.183594 26.945312-60.183594 60.171875v52.445312zm0 0" fill="#ff7816" data-original="#ff7816" class=""></path><path xmlns="http://www.w3.org/2000/svg" d="m245.644531 301.582031v-52.445312c0-33.226563-26.945312-60.171875-60.183593-60.171875h-42.191407v112.617187zm0 0" fill="#fe4b00" data-original="#fe4b00" class=""></path><path xmlns="http://www.w3.org/2000/svg" d="m211.433594 131.382812c0 37.644532-30.519532 68.175782-68.164063 68.175782s-68.160156-30.53125-68.160156-68.175782c0-37.644531 30.515625-68.164062 68.160156-68.164062s68.164063 30.519531 68.164063 68.164062zm0 0" fill="#ffcdc0" data-original="#ffcdc0" class=""></path><path xmlns="http://www.w3.org/2000/svg" d="m211.433594 131.382812c0 37.644532-30.519532 68.175782-68.164063 68.175782v-136.339844c37.644531 0 68.164063 30.519531 68.164063 68.164062zm0 0" fill="#ffb99d" data-original="#ffb99d" class=""></path></g></svg>