<?xml version="1.0" encoding="iso-8859-1"?>
<!-- Generator: Adobe Illustrator 19.0.0, SVG Export Plug-In . SVG Version: 6.00 Build 0)  -->
<svg version="1.1" id="Capa_1" xmlns="http://www.w3.org/2000/svg" xmlns:xlink="http://www.w3.org/1999/xlink" x="0px" y="0px"
	 viewBox="0 0 512 512" style="enable-background:new 0 0 512 512;" xml:space="preserve">
<path style="fill:#E3AA75;" d="M387.877,350.177l-75.572-32.388c-9.109-3.904-15.015-12.861-15.015-22.771V256H214.71v39.018
	c0,9.91-5.906,18.867-15.015,22.771l-75.572,32.388c-15.182,6.506-25.025,21.434-25.025,37.952v90.839
	c0,18.243,14.789,33.032,33.032,33.032h90.839c8.691,0,16.121-6.747,16.493-15.43c0.606-14.177-10.708-25.861-24.751-25.861h-49.548
	v-41.29h181.677v41.29h-43.028c-7.948,0-15.824,2.518-21.939,7.594C264.207,492.965,274.397,512,289.031,512h90.839
	c18.243,0,33.032-14.789,33.032-33.032v-90.839C412.902,371.611,403.059,356.683,387.877,350.177z"/>
<path style="fill:#D29B6E;" d="M148.645,388.129c-13.682,0-24.774,11.092-24.774,24.774v33.032
	c0,13.682,11.092,24.774,24.774,24.774h24.774v-82.581h-24.774V388.129z"/>
<path style="fill:#DBD9DC;" d="M387.877,350.177l-64.429-27.612L277.387,361.7c-12.333,10.479-30.442,10.479-42.776,0
	l-46.061-39.135l-64.429,27.612c-15.012,6.434-24.768,21.109-24.985,37.405l66.024,41.837h181.677l66.024-41.837
	C412.645,371.286,402.889,356.611,387.877,350.177z"/>
<path style="fill:#C9C6CA;" d="M165.16,429.419h8.258v-41.29h-24.774c-10.64,0-19.636,6.741-23.146,16.158L165.16,429.419z"/>
<path style="fill:#D29B6E;" d="M363.354,388.129c13.682,0,24.774,11.092,24.774,24.774v33.032c0,13.682-11.092,24.774-24.774,24.774
	h-24.774v-82.581h24.774V388.129z"/>
<path style="fill:#C9C6CA;" d="M346.838,429.419h-8.258v-41.29h24.774c10.64,0,19.636,6.741,23.146,16.158L346.838,429.419z"/>
<path style="fill:#D4F582;" d="M315.66,379.871H196.339c-30.33,0-56.399,24.165-55.946,54.491
	c0.164,10.988,3.647,21.16,9.474,29.594c2.998,4.338,8.095,6.754,13.368,6.754h51.474c10.778,0,19.891,6.907,23.299,16.516h36.553
	c1.733-3.496,4.613-7.001,9.004-10.249c5.802-4.291,13.028-6.268,20.245-6.268h44.954c5.273,0,10.37-2.416,13.368-6.754
	c5.827-8.433,9.31-18.606,9.474-29.594C372.059,404.036,345.99,379.871,315.66,379.871z"/>
<path style="fill:#E3AA75;" d="M315.66,379.871h-50.571c-0.542,2.669-0.832,5.429-0.832,8.258c0,22.804,18.486,41.29,41.29,41.29
	c22.479,0,40.679-17.987,41.195-40.343C337.754,383.256,327.006,379.871,315.66,379.871z"/>
<path style="fill:#D29B6E;" d="M214.71,288.162c12.589,5.802,26.544,9.129,41.29,9.129c14.746,0,28.701-3.327,41.29-9.129V256
	h-82.58V288.162z"/>
<g>
	<circle style="fill:#A06E50;" cx="255.999" cy="49.548" r="49.548"/>
	<circle style="fill:#A06E50;" cx="255.999" cy="148.65" r="107.36"/>
</g>
<path style="fill:#F5B97D;" d="M255.999,280.774L255.999,280.774c-45.608,0-82.581-36.973-82.581-82.581V99.097h165.161v99.097
	C338.58,243.802,301.607,280.774,255.999,280.774z"/>
<g>
	<path style="fill:#5A4650;" d="M305.628,412.903c-4.565,0-8.298-3.698-8.298-8.258s3.653-8.258,8.218-8.258h0.081
		c4.565,0,8.258,3.698,8.258,8.258S310.193,412.903,305.628,412.903z"/>
	<path style="fill:#5A4650;" d="M218.839,191.653c-7.79,0-14.927-3.468-19.097-9.274c-2.661-3.706-1.815-8.863,1.895-11.524
		c3.702-2.661,8.863-1.819,11.524,1.895c0.79,1.101,2.75,2.387,5.677,2.387s4.887-1.286,5.677-2.387
		c2.653-3.714,7.815-4.556,11.524-1.895c3.71,2.661,4.556,7.819,1.895,11.524C233.766,188.185,226.628,191.653,218.839,191.653z"/>
</g>
<path style="fill:#B67F5F;" d="M255.999,239.508c-12.395,0-23.831-3.988-30.581-10.669c-3.242-3.21-3.274-8.435-0.065-11.677
	c3.202-3.242,8.444-3.274,11.677-0.065c2.75,2.722,9.363,5.895,18.968,5.895c9.605,0,16.218-3.173,18.968-5.895
	c3.234-3.21,8.476-3.177,11.677,0.065c3.21,3.242,3.177,8.468-0.065,11.677C279.83,235.52,268.394,239.508,255.999,239.508z"/>
<path style="fill:#5A4650;" d="M293.16,191.653c-7.79,0-14.927-3.468-19.097-9.274c-2.661-3.706-1.815-8.863,1.895-11.524
	s8.863-1.819,11.524,1.895c0.79,1.101,2.75,2.387,5.677,2.387s4.887-1.286,5.677-2.387c2.653-3.714,7.806-4.556,11.524-1.895
	c3.71,2.661,4.556,7.819,1.895,11.524C308.088,188.185,300.951,191.653,293.16,191.653z"/>
<path style="fill:#E3AA75;" d="M198.193,115.613c0,0,77.672,14.207,140.387,71.17V99.097H173.418v99.097
	c0,45.608,36.973,82.581,82.581,82.581c4.221,0,8.336-0.417,12.387-1.028c-39.716-5.991-70.194-40.166-70.194-81.552v-82.582
	H198.193z"/>
<path style="fill:#B67F5F;" d="M256.06,41.29c-60.01-0.033-108.535,49.171-107.396,109.433c1.336,1.13,53.044-1.806,71.962-40.066
	c1.634-3.304,5.417-4.911,9.014-4.104c18.099,4.061,70.646,19.963,128.274,75.587c4.88-14.849,6.8-31.038,4.427-48.029
	C355.017,81.671,309.009,41.32,256.06,41.29z"/>
<path style="fill:#BEE86E;" d="M342.709,454.194H290.16c-45-24.243-60.25-58.097-65.097-74.323H207.96
	c3.555,14.316,15.441,46.913,51.676,74.323h-40.797c-29.645,0-53.677-24.032-53.677-53.677c0-4.216,0.536-8.299,1.455-12.234
	c-15.77,9.609-26.515,26.544-26.223,46.08c0.164,10.988,3.647,21.16,9.474,29.594c2.997,4.338,8.095,6.754,13.368,6.754h51.474
	c10.778,0,19.891,6.907,23.299,16.516h36.553c1.732-3.496,4.613-7.002,9.004-10.249c5.802-4.291,13.028-6.268,20.244-6.268h44.954
	c5.273,0,10.37-2.416,13.368-6.754c3.543-5.128,6.084-10.953,7.675-17.159C361.846,451.468,352.606,454.194,342.709,454.194z"/>
<path style="fill:#AFD755;" d="M259.427,454.194c8.907,6.752,19.238,13.2,31.359,18.968c1.977-0.762,4.01-1.354,6.103-1.742
	c0.148-0.029,0.291-0.069,0.439-0.096c2.14-0.369,4.303-0.614,6.481-0.614h27.711c-16.085-4.52-29.689-10.21-41.389-16.516
	L259.427,454.194L259.427,454.194z"/>
<g>
</g>
<g>
</g>
<g>
</g>
<g>
</g>
<g>
</g>
<g>
</g>
<g>
</g>
<g>
</g>
<g>
</g>
<g>
</g>
<g>
</g>
<g>
</g>
<g>
</g>
<g>
</g>
<g>
</g>
</svg>
