<svg height="352pt" viewBox="0 -16 352 352" width="352pt" xmlns="http://www.w3.org/2000/svg"><path d="m0 96h352v224h-352zm0 0" fill="#ebebeb"/><path d="m32 160h144v128h-144zm0 0" fill="#6cbae5"/><g fill="#dbdbdb"><path d="m216 232h112v16h-112zm0 0"/><path d="m216 184h112v16h-112zm0 0"/><path d="m312 280h16v16h-16zm0 0"/><path d="m280 280h16v16h-16zm0 0"/><path d="m248 280h16v16h-16zm0 0"/><path d="m216 280h16v16h-16zm0 0"/></g><path d="m64 288h80c-.007812-18.289062-10.292969-35.023438-26.609375-43.289062 12.457031-6.210938 19-20.175782 15.808594-33.722657-3.191407-13.546875-15.28125-23.121093-29.199219-23.121093s-26.007812 9.574218-29.199219 23.121093c-3.191406 13.546875 3.351563 27.511719 15.808594 33.722657-16.316406 8.265624-26.601563 25-26.609375 43.289062zm0 0" fill="#428dc5"/><path d="m128 120h96v16h-96zm0 0" fill="#dbdbdb"/><path d="m152 0h48v72h-48zm0 0" fill="#e06661"/><path d="m200 136h-48v-64c0-13.253906 10.746094-24 24-24s24 10.746094 24 24zm0 0" fill="#fbb540"/></svg>