<svg xmlns="http://www.w3.org/2000/svg" version="1.1" xmlns:xlink="http://www.w3.org/1999/xlink" xmlns:svgjs="http://svgjs.com/svgjs" width="512" height="512" x="0" y="0" viewBox="0 0 512 512" style="enable-background:new 0 0 512 512" xml:space="preserve" class=""><g><path xmlns="http://www.w3.org/2000/svg" d="m343.769531 0h-234.917969c-4.089843 0-8.011718 1.625-10.90625 4.515625l-93.429687 93.429687c-2.890625 2.894532-4.515625 6.816407-4.515625 10.90625v342.78125c0 8.519532 6.90625 15.421876 15.421875 15.421876h328.347656c8.519531 0 15.421875-6.902344 15.421875-15.421876v-436.210937c0-8.515625-6.902344-15.421875-15.421875-15.421875zm-250.339843 52.652344v40.777344h-40.777344zm234.917968 383.5625h-297.503906v-311.941406h78.007812c8.515626 0 15.421876-6.90625 15.421876-15.421876v-78.007812h204.074218zm0 0" fill="#921e1e" data-original="#000000" class=""></path><path xmlns="http://www.w3.org/2000/svg" d="m509.800781 81.511719-44.414062-74.023438c-2.785157-4.644531-7.804688-7.488281-13.222657-7.488281-5.417968 0-10.4375 2.84375-13.222656 7.488281l-44.414062 74.023438c-1.441406 2.398437-2.199219 5.140625-2.199219 7.9375v340.832031c0 20.277344 16.496094 36.777344 36.777344 36.777344h46.117187c20.277344 0 36.777344-16.5 36.777344-36.777344v-340.835938c0-2.792968-.761719-5.535156-2.199219-7.933593zm-86.628906 23.355469h57.984375v269.480468h-57.984375zm28.992187-59.46875 17.175782 28.628906h-34.351563zm23.058594 390.816406h-46.117187c-3.273438 0-5.933594-2.664063-5.933594-5.933594v-25.085938h57.984375v25.085938c0 3.269531-2.660156 5.933594-5.933594 5.933594zm0 0" fill="#921e1e" data-original="#000000" class=""></path><path xmlns="http://www.w3.org/2000/svg" d="m178.804688 161.128906h99.929687c8.519531 0 15.421875-6.90625 15.421875-15.421875v-56.261719c0-8.515624-6.902344-15.421874-15.421875-15.421874h-99.929687c-8.519532 0-15.421876 6.90625-15.421876 15.421874v56.261719c0 8.515625 6.902344 15.421875 15.421876 15.421875zm15.421874-56.261718h69.085938v25.417968h-69.085938zm0 0" fill="#921e1e" data-original="#000000" class=""></path><path xmlns="http://www.w3.org/2000/svg" d="m278.734375 187.5h-199.863281c-8.515625 0-15.421875 6.902344-15.421875 15.421875 0 8.515625 6.90625 15.421875 15.421875 15.421875h199.863281c8.515625 0 15.421875-6.90625 15.421875-15.421875 0-8.519531-6.902344-15.421875-15.421875-15.421875zm0 0" fill="#921e1e" data-original="#000000" class=""></path><path xmlns="http://www.w3.org/2000/svg" d="m278.734375 241.851562h-199.863281c-8.515625 0-15.421875 6.90625-15.421875 15.421876 0 8.515624 6.90625 15.421874 15.421875 15.421874h199.863281c8.515625 0 15.421875-6.90625 15.421875-15.421874 0-8.515626-6.902344-15.421876-15.421875-15.421876zm0 0" fill="#921e1e" data-original="#000000" class=""></path><path xmlns="http://www.w3.org/2000/svg" d="m278.734375 296.203125h-199.863281c-8.515625 0-15.421875 6.90625-15.421875 15.421875 0 8.519531 6.90625 15.421875 15.421875 15.421875h199.863281c8.515625 0 15.421875-6.902344 15.421875-15.421875 0-8.515625-6.902344-15.421875-15.421875-15.421875zm0 0" fill="#921e1e" data-original="#000000" class=""></path><path xmlns="http://www.w3.org/2000/svg" d="m228.769531 350.554688h-149.898437c-8.515625 0-15.421875 6.90625-15.421875 15.421874 0 8.519532 6.90625 15.421876 15.421875 15.421876h149.898437c8.515625 0 15.421875-6.902344 15.421875-15.421876 0-8.515624-6.90625-15.421874-15.421875-15.421874zm0 0" fill="#921e1e" data-original="#000000" class=""></path></g></svg>