<svg id="Icon_Set" enable-background="new 0 0 256 256" height="512" viewBox="0 0 256 256" width="512" xmlns="http://www.w3.org/2000/svg"><path d="m165.878 99.248-.09.023c-27.605 7.006-56.522 7.006-84.127 0l-.09-.023c-2.137-.542-3.634-2.466-3.634-4.672v-49.267h91.574v49.267c.001 2.205-1.496 4.129-3.633 4.672z" fill="#87828e"/><path d="m169.516 45.307v49.27c0 2.2-1.5 4.13-3.64 4.67l-.09.02c-16.24 4.12-32.94 5.82-49.56 5.09 11.62-.51 23.2-2.21 34.56-5.09l.09-.02c2.14-.54 3.64-2.47 3.64-4.67v-49.27z" fill="#796e84"/><path d="m131.226 104.357c-16.62.73-33.32-.97-49.56-5.09l-.09-.02c-2.14-.54-3.64-2.47-3.64-4.67v-49.27h15v49.27c0 2.2 1.5 4.13 3.64 4.67l.09.02c11.36 2.88 22.94 4.58 34.56 5.09z" fill="#a4a4a5"/><path d="m89.507 27.538-29.3 11.141c-1.719.654-1.719 3.085 0 3.739l29.301 11.141 33.507 12.74c.458.174.964.174 1.422 0l33.507-12.74 29.301-11.141c1.719-.654 1.719-3.085 0-3.739l-29.301-11.141-33.507-12.74c-.458-.174-.964-.174-1.422 0z" fill="#87828e"/><path d="m187.246 42.417-29.3 11.14-33.51 12.74c-.46.18-.96.18-1.42 0l-14.79-5.62 18.72-7.12 29.3-11.14c1.72-.65 1.72-3.08 0-3.74l-29.3-11.14-18.72-7.12 14.79-5.62c.46-.17.96-.17 1.42 0l33.51 12.74 29.3 11.14c1.72.66 1.72 3.09 0 3.74z" fill="#796e84"/><path d="m119.506 53.557 19.22 7.31-14.29 5.43c-.46.18-.96.18-1.42 0l-33.51-12.74-29.3-11.14c-1.72-.65-1.72-3.08 0-3.74l29.3-11.14 33.51-12.74c.46-.17.96-.17 1.42 0l14.29 5.43-19.22 7.31-29.3 11.14c-1.72.66-1.72 3.09 0 3.74z" fill="#a4a4a5"/><path id="XMLID_36_" d="m198.12 150.79c-2.276-.206-4.564-.315-6.852-.315-8.183 0-16.391 1.32-24.283 3.983-3.135 1.053-6.186 2.3-9.14 3.753l-47.731 23.351-79.871-43.337c-2.409-1.38-5.024-2.034-7.614-2.034-5.302 0-10.459 2.76-13.292 7.687-4.213 7.324-1.683 16.693 5.653 20.894l78.963 72.342c.048.036.097.085.145.121 7.711 5.883 18.001 7.166 27.08 3.741l63.819-24.102c7.082-2.385 14.502-2.905 21.596-1.719 4.14.69 8.171 1.961 11.984 3.789v-63.372c-6.596-2.542-13.484-4.14-20.457-4.782z" fill="#ffbb98"/><path d="m248.841 145.546v79.43c0 3.03-2.45 5.48-5.48 5.48h-19.3c-3.03 0-5.48-2.45-5.48-5.48v-79.43c0-3.02 2.45-5.48 5.48-5.48h19.3c3.03 0 5.48 2.459 5.48 5.48z" fill="#5fcdff"/><path d="m248.841 145.546v79.43c0 3.03-2.45 5.48-5.48 5.48h-4.3c-3.03 0-5.48-2.45-5.48-5.48v-79.43c0-3.02 2.45-5.48 5.48-5.48h4.3c3.03 0 5.48 2.459 5.48 5.48z" fill="#30b6ff"/><path id="XMLID_35_" d="m198.12 150.79c-2.276-.206-4.564-.315-6.852-.315-8.183 0-16.391 1.32-24.283 3.983-3.135 1.053-6.186 2.3-9.14 3.753l-47.731 23.351-7.566 3.704c-4.951 2.494-7.808 7.505-7.808 12.686 0 2.155.484 4.346 1.525 6.392 3.535 7.009 12.069 9.83 19.078 6.295l58.6-28.665s16.979-7.619 37.808-6.158l6.827.548v-20.793c-6.597-2.541-13.485-4.139-20.458-4.781z" fill="#ffcaa6"/><g fill="#5f266d"><path d="m243.284 135.997h-19.3c-5.247 0-9.5 4.253-9.5 9.5v4.422c-19.355-5.898-40.357-4.32-58.459 4.585-2.63 1.287-43.596 21.331-45.904 22.463l-77.989-42.264c-14.762-8.444-32.749 5.198-28.199 21.888 2.148 7.878 7.286 10.182 10.922 13.516 3.87 3.548 13.398 12.28 36.976 33.89 19.155 17.555 38.961 35.706 39.524 36.226.094.088.192.172.295.25 8.795 6.74 20.686 8.214 30.946 4.268l63.734-24.076c9.225-3.114 19.122-2.774 28.152.9v3.333c0 .043.001.087.002.13.171 5.254 4.343 9.37 9.498 9.37h19.3c5.247 0 9.5-4.253 9.5-9.5v-79.399c.002-5.249-4.251-9.502-9.498-9.502zm-59.713 77.157-63.822 24.109c-7.805 3.004-16.64 1.835-23.103-3.044-1.05-.967-6.755-6.195-39.409-36.122-19.175-17.572-38.999-35.741-39.525-36.227-1-.932-4.668-2.281-6.061-7.385-2.53-9.281 7.091-17.858 16.627-12.772l73.055 39.59c-18.077 8.961-11.496 34.784 7.661 34.784 5.658 0 2.284.916 67.846-31.097 1.985-.97 2.809-3.364 1.84-5.35s-3.366-2.807-5.35-1.84l-59.835 29.217c-7.955 3.979-17.16-3.565-14.331-12.273 1.631-5.021 2.441-4.708 28.295-17.356l32.091-15.703c17.014-8.371 36.882-9.547 54.935-3.367v54.723c-10.898-3.63-22.468-3.029-30.914.113zm61.213 11.742c0 .825-.675 1.5-1.5 1.5h-19.3c-.825 0-1.45-.662-1.5-1.581v-79.318c0-.825.675-1.5 1.5-1.5h19.3c.825 0 1.5.675 1.5 1.5z"/><path d="m58.76 46.157 15.156 5.763v42.657c0 4.045 2.735 7.56 6.651 8.548.026.007.09.021.144.033 14.069 3.567 28.539 5.351 43.003 5.351 14.472 0 28.939-1.785 42.991-5.353.031-.007.062-.014.092-.022 3.927-.992 6.689-4.507 6.689-8.557v-42.658l11.152-4.24v20.171c-2.552.226-4.561 2.345-4.561 4.956v7.121c0 1.606.771 3.02 1.948 3.935l-4.093 4.093c-2.528 2.526-.702 6.828 2.828 6.828 1.905 0 2.768-1.112 3.877-2.221v1.311c0 2.089 1.527 3.955 3.607 4.153 2.386.228 4.393-1.642 4.393-3.981v-1.483c1.101 1.101 1.968 2.221 3.877 2.221 3.53 0 5.356-4.302 2.828-6.828l-4.093-4.093c2.51-1.95 1.948-4.088 1.948-11.056 0-2.611-2.008-4.73-4.56-4.956v-27.655c0-1.745-1.538-4.319-3.998-5.255l-62.809-23.882c-1.374-.522-2.887-.522-4.263 0-40.672 15.465-25.861 9.833-62.806 23.882-5.153 1.96-5.152 9.258-.001 11.217zm106.726 48.42c0 .369-.258.702-.57.78-.045.011-.09.021-.135.032-26.875 6.824-55.286 6.824-82.161 0-.024-.006-.077-.019-.127-.029-.341-.102-.577-.419-.577-.783v-39.615l39.654 15.077c1.382.525 2.891.519 4.263 0l39.653-15.078zm-41.786-75.77 57.18 21.742c-4.102 1.56-48.794 18.554-57.18 21.742-1.767-.672-37.377-14.212-57.18-21.742z"/><path d="m12.094 61.587h12.219c2.089 0 3.955-1.527 4.153-3.607.228-2.386-1.642-4.393-3.981-4.393h-12.219c-2.089 0-3.955 1.527-4.153 3.607-.228 2.385 1.642 4.393 3.981 4.393z"/><path d="m38.67 24.689c1.753 1.755 4.737 1.539 6.186-.651 1.054-1.593.741-3.734-.609-5.085l-8.683-8.683c-1.753-1.756-4.737-1.539-6.186.651-1.054 1.592-.741 3.734.609 5.085z"/><path d="m39.003 90.497-8.682 8.682c-1.35 1.35-1.664 3.492-.61 5.084 1.449 2.19 4.433 2.407 6.187.651l8.682-8.682c1.35-1.35 1.664-3.492.609-5.085-1.449-2.189-4.433-2.406-6.186-.65z"/><path d="m231.607 61.599h12.219c2.089 0 3.955-1.527 4.153-3.607.228-2.386-1.642-4.393-3.981-4.393h-12.219c-2.089 0-3.955 1.527-4.153 3.607-.228 2.385 1.642 4.393 3.981 4.393z"/><path d="m217.422 90.497c-1.756-1.756-4.738-1.539-6.187.652-1.054 1.592-.735 3.738.614 5.088 9.244 9.247 9.326 9.85 11.507 9.85 3.53 0 5.356-4.302 2.828-6.828z"/><path d="m217.089 24.689 8.602-8.603c1.531-1.532 1.757-4.051.307-5.66-1.546-1.716-4.193-1.768-5.804-.156l-8.602 8.603c-1.531 1.531-1.757 4.05-.308 5.659 1.546 1.718 4.193 1.771 5.805.157z"/><path d="m154.018 89.563c1.222-.479 2.36-1.016 3.387-1.599 1.704-.967 2.581-3.011 1.923-4.856-.867-2.431-3.649-3.383-5.779-2.154-.697.401-1.494.781-2.369 1.128-1.91.758-3.038 2.871-2.471 4.847.663 2.316 3.146 3.485 5.309 2.634z"/><path d="m126.596 92.744c2.703.186 7.183.222 11.369-.051 2.101-.137 3.87-1.808 3.913-3.912.049-2.381-1.955-4.225-4.269-4.082-3.244.22-6.886.263-10.448.065-5.299-.359-5.822 7.607-.565 7.98z"/></g></svg>