<svg viewBox="0 -61 512.00001 512" xmlns="http://www.w3.org/2000/svg"><path d="m177.09375 164.914062h-106.5625c-12.589844 0-22.832031-10.242187-22.832031-22.832031h15.222656c0 4.195313 3.414063 7.609375 7.609375 7.609375h106.5625zm0 0" fill="#ff4128"/><path d="m441.972656 164.914062h-106.558594c-12.59375 0-22.835937-10.242187-22.835937-22.832031h15.222656c0 4.195313 3.414063 7.609375 7.613281 7.609375h106.558594zm0 0" fill="#ffe2a8"/><path d="m202.464844 137.007812h-30.445313l5.074219 65.964844v76.117188c25.222656 0 45.667969-20.449219 45.667969-45.671875v-76.113281c0-11.210938-9.085938-20.296876-20.296875-20.296876zm0 0" fill="#cf301b"/><path d="m172.019531 137.007812h-20.296875c-11.210937 0-20.296875 9.085938-20.296875 20.296876v45.667968l-30.445312 30.449219 30.445312 45.667969 22.832031 15.222656 22.835938-15.222656c8.40625 0 15.222656-20.449219 15.222656-45.671875v-76.113281c0-11.210938-9.085937-20.296876-20.296875-20.296876zm0 0" fill="#ff4128"/><path d="m441.972656 202.972656v76.117188c25.222656 0 45.671875-20.449219 45.671875-45.671875zm0 0" fill="#2dade3"/><path d="m457.195312 233.417969v-15.222657h-91.335937l30.445313 60.894532 22.835937 15.222656 22.832031-15.222656c8.410156 0 15.222656-20.449219 15.222656-45.671875zm0 0" fill="#49c9ff"/><path d="m467.347656 137.007812h-30.449218l20.296874 96.410157h30.449219v-76.113281c0-11.210938-9.089843-20.296876-20.296875-20.296876zm0 0" fill="#ffcb63"/><path d="m436.898438 137.007812h-20.296876c-11.210937 0-20.296874 9.085938-20.296874 20.296876v45.667968l-30.445313 30.445313h91.335937v-76.113281c0-11.210938-9.085937-20.296876-20.296874-20.296876zm0 0" fill="#ffe2a8"/><path d="m243.058594 121.785156c-11.207032 0-20.296875-9.089844-20.296875-20.296875v-40.597656c22.421875 0 40.597656 18.175781 40.597656 40.597656 0 11.207031-9.089844 20.296875-20.300781 20.296875zm0 0" fill="#ff6337"/><path d="m191.394531 45.210938-14.300781 61.351562c25.222656 0 45.667969-20.449219 45.667969-45.671875zm0 0" fill="#ffb4a9"/><path d="m192.316406 60.890625c0-5.507813-.324218-10.789063-.921875-15.679687l-41.703125-20.851563c-11.09375 8.332031-18.265625 21.59375-18.265625 36.53125 0 25.222656 20.445313 45.667969 45.667969 45.667969 8.40625.003906 15.222656-20.445313 15.222656-45.667969zm0 0" fill="#ffd9d0"/><path d="m177.09375 15.222656 15.121094 40.425782c9.554687 3.390624 19.832031 5.242187 30.546875 5.242187 0-25.222656-20.445313-45.667969-45.667969-45.667969zm0 0" fill="#ff6337"/><path d="m177.09375 15.222656c-10.28125 0-19.769531 3.398438-27.402344 9.136719 10.6875 14.226563 25.4375 25.226563 42.523438 31.289063-.867188-22.75-7.304688-40.425782-15.121094-40.425782zm0 0" fill="#ff8646"/><path d="m85.757812 164.914062c-4.207031 0-7.613281-3.40625-7.613281-7.609374v-76.117188c0-4.203125 3.40625-7.609375 7.613281-7.609375 4.203126 0 7.609376 3.40625 7.609376 7.609375v76.117188c0 4.203124-3.40625 7.609374-7.609376 7.609374zm0 0" fill="#49c9ff"/><path d="m55.308594 149.691406c-4.203125 0-7.609375-3.40625-7.609375-7.609375 0-12.59375 10.242187-22.835937 22.832031-22.835937h15.226562c4.203126 0 7.609376 3.410156 7.609376 7.613281s-3.40625 7.609375-7.609376 7.609375h-15.226562c-4.195312 0-7.609375 3.414062-7.609375 7.613281 0 4.203125-3.40625 7.609375-7.613281 7.609375zm0 0" fill="#ff4128"/><path d="m350.636719 164.914062c-4.203125 0-7.613281-3.40625-7.613281-7.609374v-76.117188c0-4.203125 3.410156-7.609375 7.613281-7.609375s7.609375 3.40625 7.609375 7.609375v76.117188c0 4.203124-3.40625 7.609374-7.609375 7.609374zm0 0" fill="#49c9ff"/><path d="m320.191406 149.691406c-4.203125 0-7.613281-3.40625-7.613281-7.609375 0-12.59375 10.242187-22.835937 22.835937-22.835937h15.222657c4.203125 0 7.609375 3.410156 7.609375 7.613281s-3.40625 7.609375-7.609375 7.609375h-15.222657c-4.199218 0-7.613281 3.414062-7.613281 7.613281 0 4.203125-3.40625 7.609375-7.609375 7.609375zm0 0" fill="#ffe2a8"/><path d="m472.421875 8.160156c-3.640625-2.101562-8.296875-.855468-10.398437 2.785156l-18.296876 31.6875 13.183594 7.613282 18.296875-31.691406c2.101563-3.640626.851563-8.292969-2.785156-10.394532zm0 0" fill="#40211d"/><path d="m441.972656 0c-4.203125 0-7.609375 3.40625-7.609375 7.613281v24.871094l-12.4375-21.539063c-2.101562-3.640624-6.757812-4.886718-10.398437-2.785156-3.640625 2.101563-4.886719 6.753906-2.785156 10.394532l24.609374 42.625h16.234376v-53.566407c0-4.207031-3.40625-7.613281-7.613282-7.613281zm0 0" fill="#60312c"/><path d="m441.972656 15.222656v91.339844c25.222656 0 45.671875-20.449219 45.671875-45.671875s-20.449219-45.667969-45.671875-45.667969zm0 0" fill="#60312c"/><path d="m457.195312 60.890625c0-25.222656-6.8125-45.667969-15.222656-45.667969-25.222656 0-45.667968 20.445313-45.667968 45.667969s20.445312 45.671875 45.667968 45.671875c8.410156 0 15.222656-20.449219 15.222656-45.671875zm0 0" fill="#85453d"/><path d="m496.777344 298.878906v83.726563c0 4.203125 3.40625 7.609375 7.609375 7.609375 4.207031 0 7.613281-3.40625 7.613281-7.609375v-73.578125zm0 0" fill="#e18f4e"/><path d="m481.554688 278.582031-20.296876 15.222657 20.296876 15.222656h30.445312v-30.445313zm0 0" fill="#e18f4e"/><path d="m388.695312 278.578125h92.859376v30.449219h-92.859376zm0 0" fill="#ffa754"/><path d="m381.082031 258.28125v124.324219c0 4.203125 3.40625 7.609375 7.613281 7.609375 4.203126 0 7.609376-3.40625 7.609376-7.609375v-104.027344zm0 0" fill="#a45e43"/><path d="m272.492188 222.761719v159.84375c0 4.203125 3.40625 7.609375 7.609374 7.609375 4.207032 0 7.613282-3.40625 7.613282-7.609375v-159.84375zm0 0" fill="#c27749"/><path d="m337.949219 251.179688c-.003907 0-.003907 116.292968-.003907 116.292968l-25.242187 8.414063c-3.988281 1.328125-6.140625 5.640625-4.8125 9.628906s5.640625 6.144531 9.628906 4.8125l30.441407-10.148437c3.109374-1.035157 5.207031-3.945313 5.207031-7.21875v-114.175782zm0 0" fill="#49c9ff"/><path d="m396.304688 278.578125h-30.445313l-64.445313-60.890625 94.890626 15.222656zm0 0" fill="#a45e43"/><path d="m280.101562 217.6875h85.757813v60.890625h-85.757813zm0 0" fill="#c27749"/><path d="m365.859375 202.464844-30.445313 15.222656 30.445313 15.222656h30.445313v-30.445312zm0 0" fill="#e18f4e"/><path d="m264.878906 202.464844h100.980469v30.445312h-100.980469zm0 0" fill="#ffa754"/><path d="m231.898438 298.878906v83.726563c0 4.203125 3.40625 7.609375 7.609374 7.609375 4.207032 0 7.613282-3.40625 7.613282-7.609375v-73.578125zm0 0" fill="#e18f4e"/><path d="m216.675781 278.582031-20.300781 15.222657 20.300781 15.222656h30.445313v-30.445313zm0 0" fill="#e18f4e"/><path d="m123.8125 278.578125h92.863281v30.449219h-92.863281zm0 0" fill="#ffa754"/><path d="m116.203125 258.28125v124.324219c0 4.203125 3.40625 7.609375 7.609375 7.609375 4.207031 0 7.613281-3.40625 7.613281-7.609375v-104.027344zm0 0" fill="#a45e43"/><path d="m7.613281 222.761719v159.84375c0 4.203125 3.40625 7.609375 7.609375 7.609375s7.613282-3.40625 7.613282-7.609375v-159.84375zm0 0" fill="#c27749"/><path d="m73.070312 251.179688c-.007812 0-.007812 116.292968-.007812 116.292968l-25.238281 8.414063c-3.988281 1.328125-6.144531 5.640625-4.8125 9.628906 1.328125 3.988281 5.640625 6.144531 9.625 4.8125l30.445312-10.148437c3.109375-1.035157 5.203125-3.945313 5.203125-7.21875v-114.175782zm0 0" fill="#ffd9d0"/><path d="m131.425781 278.578125h-30.445312l-64.445313-60.890625 94.890625 15.222656zm0 0" fill="#a45e43"/><path d="m15.222656 217.6875h85.757813v60.890625h-85.757813zm0 0" fill="#c27749"/><path d="m100.980469 202.464844-30.449219 15.222656 30.449219 15.222656h30.445312v-30.445312zm0 0" fill="#e18f4e"/><path d="m0 202.464844h100.980469v30.445312h-100.980469zm0 0" fill="#ffa754"/></svg>