<svg xmlns="http://www.w3.org/2000/svg" version="1.1" xmlns:xlink="http://www.w3.org/1999/xlink" xmlns:svgjs="http://svgjs.com/svgjs" width="512" height="512" x="0" y="0" viewBox="0 0 64 64" style="enable-background:new 0 0 512 512" xml:space="preserve" class=""><g><path xmlns="http://www.w3.org/2000/svg" d="m8.0078 55.78a3.0015 3.0015 0 0 1 -2.6-4.5025l23.9922-41.5563a3.0016 3.0016 0 0 1 5.1992 0l23.9926 41.5561a3.0015 3.0015 0 0 1 -2.6 4.5025z" fill="#ffd21e" data-original="#ffd21e" class=""></path><g xmlns="http://www.w3.org/2000/svg" fill="#373737"><path d="m32 9.22a1.9662 1.9662 0 0 1 1.7333 1.0007l23.9926 41.5568a2.0015 2.0015 0 0 1 -1.7333 3.0025h-47.9852a2.0015 2.0015 0 0 1 -1.7333-3.0022l23.9926-41.5568a1.9663 1.9663 0 0 1 1.7333-1.001m0-2a3.9641 3.9641 0 0 0 -3.4654 2.001l-23.9925 41.5565a4.0014 4.0014 0 0 0 3.4653 6.0025h47.9852a4.0014 4.0014 0 0 0 3.4653-6.0022l-23.9925-41.5568a3.9641 3.9641 0 0 0 -3.4654-2.001z" fill="#373737" data-original="#373737" class=""></path><circle cx="32" cy="46.993" r="2" fill="#373737" data-original="#373737" class=""></circle><rect height="20" rx="2" width="4" x="30" y="20.993" fill="#373737" data-original="#373737" class=""></rect></g></g></svg>